<?xml version="1.0" encoding="utf-8"?>
<!-- Generator: Adobe Illustrator 16.0.4, SVG Export Plug-In . SVG Version: 6.00 Build 0)  -->
<!DOCTYPE svg PUBLIC "-//W3C//DTD SVG 1.1//EN" "http://www.w3.org/Graphics/SVG/1.1/DTD/svg11.dtd">
<svg version="1.1" id="Layer_1" xmlns="http://www.w3.org/2000/svg" xmlns:xlink="http://www.w3.org/1999/xlink" x="0px" y="0px"
	 width="126.801px" height="38.172px" viewBox="0 0 126.801 38.172" enable-background="new 0 0 126.801 38.172"
	 xml:space="preserve">
<g>
	<path fill="none" stroke="#FFFFFF" stroke-width="2" stroke-miterlimit="10" d="M112.36,10.9c0,0,1.457,6.13-6.485,10.954"/>
	<polygon fill="#FFFFFF" points="117.987,11.576 113.835,-1.392 106.73,10.223 	"/>
</g>
<rect x="1" y="13.604" fill="none" width="127.333" height="32.333"/>
<g enable-background="new    ">
	<path fill="#FFFFFF" d="M1.434,20.401l1.688-0.164c0.102,0.566,0.308,0.982,0.618,1.248s0.729,0.398,1.257,0.398
		c0.559,0,0.979-0.118,1.263-0.354s0.425-0.513,0.425-0.829c0-0.203-0.06-0.376-0.179-0.519s-0.327-0.267-0.624-0.372
		c-0.203-0.07-0.666-0.195-1.389-0.375c-0.93-0.23-1.582-0.514-1.957-0.85c-0.527-0.473-0.791-1.049-0.791-1.729
		c0-0.438,0.124-0.847,0.372-1.228s0.605-0.671,1.072-0.87s1.03-0.299,1.69-0.299c1.078,0,1.89,0.236,2.435,0.709
		s0.831,1.104,0.858,1.893l-1.734,0.076c-0.074-0.441-0.233-0.759-0.478-0.952s-0.61-0.29-1.099-0.29
		c-0.504,0-0.898,0.104-1.184,0.311c-0.184,0.133-0.275,0.311-0.275,0.533c0,0.203,0.086,0.377,0.258,0.521
		c0.219,0.184,0.75,0.375,1.594,0.574s1.468,0.405,1.872,0.618s0.721,0.504,0.949,0.873s0.343,0.825,0.343,1.368
		c0,0.492-0.137,0.953-0.41,1.383s-0.66,0.749-1.16,0.958s-1.123,0.313-1.869,0.313c-1.086,0-1.92-0.251-2.502-0.753
		S1.547,21.362,1.434,20.401z"/>
	<path fill="#FFFFFF" d="M13.469,21.216l1.641,0.275c-0.211,0.602-0.544,1.06-0.999,1.374s-1.024,0.472-1.708,0.472
		c-1.082,0-1.883-0.354-2.402-1.061c-0.41-0.566-0.615-1.281-0.615-2.145c0-1.031,0.27-1.839,0.809-2.423s1.221-0.876,2.045-0.876
		c0.926,0,1.656,0.306,2.191,0.917s0.791,1.548,0.768,2.81h-4.125c0.012,0.488,0.145,0.868,0.398,1.14s0.57,0.407,0.949,0.407
		c0.258,0,0.475-0.07,0.65-0.211S13.379,21.528,13.469,21.216z M13.562,19.552c-0.012-0.477-0.135-0.839-0.369-1.087
		s-0.52-0.372-0.855-0.372c-0.359,0-0.656,0.131-0.891,0.393s-0.35,0.617-0.346,1.066H13.562z"/>
	<path fill="#FFFFFF" d="M16.539,23.196v-8.59h1.646v8.59H16.539z"/>
	<path fill="#FFFFFF" d="M23.477,21.216l1.641,0.275c-0.211,0.602-0.544,1.06-0.999,1.374s-1.024,0.472-1.708,0.472
		c-1.082,0-1.883-0.354-2.402-1.061c-0.41-0.566-0.615-1.281-0.615-2.145c0-1.031,0.27-1.839,0.809-2.423s1.221-0.876,2.045-0.876
		c0.926,0,1.656,0.306,2.191,0.917s0.791,1.548,0.768,2.81H21.08c0.012,0.488,0.145,0.868,0.398,1.14s0.57,0.407,0.949,0.407
		c0.258,0,0.475-0.07,0.65-0.211S23.387,21.528,23.477,21.216z M23.57,19.552c-0.012-0.477-0.135-0.839-0.369-1.087
		s-0.52-0.372-0.855-0.372c-0.359,0-0.656,0.131-0.891,0.393s-0.35,0.617-0.346,1.066H23.57z"/>
	<path fill="#FFFFFF" d="M31.973,18.813l-1.623,0.293c-0.055-0.324-0.179-0.568-0.372-0.732s-0.444-0.246-0.753-0.246
		c-0.41,0-0.737,0.142-0.981,0.425s-0.366,0.757-0.366,1.421c0,0.738,0.124,1.26,0.372,1.564s0.581,0.457,0.999,0.457
		c0.312,0,0.568-0.089,0.768-0.267s0.34-0.483,0.422-0.917l1.617,0.275c-0.168,0.742-0.49,1.303-0.967,1.682
		s-1.115,0.568-1.916,0.568c-0.91,0-1.636-0.287-2.177-0.861s-0.812-1.369-0.812-2.385c0-1.027,0.271-1.827,0.814-2.399
		s1.277-0.858,2.203-0.858c0.758,0,1.36,0.163,1.808,0.489S31.777,18.146,31.973,18.813z"/>
	<path fill="#FFFFFF" d="M36.074,16.974v1.312h-1.125v2.508c0,0.508,0.011,0.804,0.032,0.888s0.07,0.153,0.146,0.208
		s0.169,0.082,0.278,0.082c0.152,0,0.373-0.053,0.662-0.158l0.141,1.277c-0.383,0.164-0.816,0.246-1.301,0.246
		c-0.297,0-0.564-0.05-0.803-0.149s-0.413-0.229-0.524-0.387s-0.188-0.372-0.231-0.642c-0.035-0.191-0.053-0.578-0.053-1.16v-2.713
		h-0.756v-1.312h0.756v-1.236l1.652-0.961v2.197H36.074z"/>
	<path fill="#FFFFFF" d="M41.781,18.872l-1.494-0.27c0.168-0.602,0.457-1.047,0.867-1.336s1.02-0.434,1.828-0.434
		c0.734,0,1.281,0.087,1.641,0.261s0.612,0.395,0.759,0.662s0.22,0.759,0.22,1.474l-0.018,1.922c0,0.547,0.026,0.95,0.079,1.21
		s0.151,0.538,0.296,0.835H44.33c-0.043-0.109-0.096-0.271-0.158-0.486c-0.027-0.098-0.047-0.162-0.059-0.193
		c-0.281,0.273-0.582,0.479-0.902,0.615s-0.662,0.205-1.025,0.205c-0.641,0-1.146-0.174-1.515-0.521s-0.554-0.787-0.554-1.318
		c0-0.352,0.084-0.665,0.252-0.94s0.403-0.486,0.706-0.633s0.739-0.274,1.31-0.384c0.77-0.145,1.303-0.279,1.6-0.404v-0.164
		c0-0.316-0.078-0.542-0.234-0.677s-0.451-0.202-0.885-0.202c-0.293,0-0.521,0.058-0.686,0.173S41.883,18.583,41.781,18.872z
		 M43.984,20.208c-0.211,0.07-0.545,0.154-1.002,0.252s-0.756,0.193-0.896,0.287c-0.215,0.152-0.322,0.346-0.322,0.58
		c0,0.23,0.086,0.43,0.258,0.598s0.391,0.252,0.656,0.252c0.297,0,0.58-0.098,0.85-0.293c0.199-0.148,0.33-0.33,0.393-0.545
		c0.043-0.141,0.064-0.408,0.064-0.803V20.208z"/>
	<path fill="#FFFFFF" d="M52.885,23.196h-1.646v-3.176c0-0.672-0.035-1.106-0.105-1.304s-0.185-0.351-0.343-0.46
		s-0.349-0.164-0.571-0.164c-0.285,0-0.541,0.078-0.768,0.234s-0.382,0.363-0.466,0.621s-0.126,0.734-0.126,1.43v2.818h-1.646
		v-6.223h1.529v0.914c0.543-0.703,1.227-1.055,2.051-1.055c0.363,0,0.695,0.065,0.996,0.196s0.528,0.298,0.683,0.501
		s0.262,0.434,0.322,0.691s0.091,0.627,0.091,1.107V23.196z"/>
	<path fill="#FFFFFF" d="M57.889,16.13v-1.523h1.646v1.523H57.889z M57.889,23.196v-6.223h1.646v6.223H57.889z"/>
	<path fill="#FFFFFF" d="M66.883,23.196h-1.646v-3.176c0-0.672-0.035-1.106-0.105-1.304s-0.186-0.351-0.344-0.46
		s-0.348-0.164-0.57-0.164c-0.285,0-0.542,0.078-0.768,0.234s-0.382,0.363-0.466,0.621s-0.126,0.734-0.126,1.43v2.818h-1.646v-6.223
		h1.529v0.914c0.543-0.703,1.227-1.055,2.051-1.055c0.363,0,0.695,0.065,0.996,0.196s0.527,0.298,0.682,0.501
		s0.262,0.434,0.322,0.691s0.092,0.627,0.092,1.107V23.196z"/>
	<path fill="#FFFFFF" d="M71.407,16.974v1.312h-1.125v2.508c0,0.508,0.01,0.804,0.031,0.888s0.07,0.153,0.146,0.208
		s0.17,0.082,0.279,0.082c0.152,0,0.373-0.053,0.662-0.158l0.141,1.277c-0.383,0.164-0.816,0.246-1.301,0.246
		c-0.297,0-0.564-0.05-0.803-0.149s-0.414-0.229-0.525-0.387s-0.188-0.372-0.23-0.642c-0.035-0.191-0.053-0.578-0.053-1.16v-2.713
		h-0.756v-1.312h0.756v-1.236l1.652-0.961v2.197H71.407z"/>
	<path fill="#FFFFFF" d="M76.153,21.216l1.641,0.275c-0.211,0.602-0.545,1.06-1,1.374s-1.023,0.472-1.707,0.472
		c-1.082,0-1.883-0.354-2.402-1.061c-0.41-0.566-0.615-1.281-0.615-2.145c0-1.031,0.27-1.839,0.809-2.423s1.221-0.876,2.045-0.876
		c0.926,0,1.656,0.306,2.191,0.917s0.791,1.548,0.768,2.81h-4.125c0.012,0.488,0.145,0.868,0.398,1.14s0.57,0.407,0.949,0.407
		c0.258,0,0.475-0.07,0.65-0.211S76.063,21.528,76.153,21.216z M76.247,19.552c-0.012-0.477-0.135-0.839-0.369-1.087
		s-0.52-0.372-0.855-0.372c-0.359,0-0.656,0.131-0.891,0.393s-0.35,0.617-0.346,1.066H76.247z"/>
	<path fill="#FFFFFF" d="M80.799,23.196h-1.646v-6.223h1.529v0.885c0.262-0.418,0.496-0.693,0.705-0.826s0.447-0.199,0.713-0.199
		c0.375,0,0.736,0.104,1.084,0.311l-0.51,1.436c-0.277-0.18-0.535-0.27-0.773-0.27c-0.23,0-0.426,0.063-0.586,0.19
		s-0.287,0.356-0.379,0.688s-0.137,1.027-0.137,2.086V23.196z"/>
	<path fill="#FFFFFF" d="M87.497,21.216l1.641,0.275c-0.211,0.602-0.545,1.06-1,1.374s-1.023,0.472-1.707,0.472
		c-1.082,0-1.883-0.354-2.402-1.061c-0.41-0.566-0.615-1.281-0.615-2.145c0-1.031,0.27-1.839,0.809-2.423s1.221-0.876,2.045-0.876
		c0.926,0,1.656,0.306,2.191,0.917s0.791,1.548,0.768,2.81H85.1c0.012,0.488,0.145,0.868,0.398,1.14s0.57,0.407,0.949,0.407
		c0.258,0,0.475-0.07,0.65-0.211S87.407,21.528,87.497,21.216z M87.59,19.552c-0.012-0.477-0.135-0.839-0.369-1.087
		s-0.52-0.372-0.855-0.372c-0.359,0-0.656,0.131-0.891,0.393s-0.35,0.617-0.346,1.066H87.59z"/>
	<path fill="#FFFFFF" d="M89.987,21.421l1.652-0.252c0.07,0.32,0.213,0.563,0.428,0.729s0.516,0.249,0.902,0.249
		c0.426,0,0.746-0.078,0.961-0.234c0.145-0.109,0.217-0.256,0.217-0.439c0-0.125-0.039-0.229-0.117-0.311
		c-0.082-0.078-0.266-0.15-0.551-0.217c-1.328-0.293-2.17-0.561-2.525-0.803c-0.492-0.336-0.738-0.803-0.738-1.4
		c0-0.539,0.213-0.992,0.639-1.359s1.086-0.551,1.98-0.551c0.852,0,1.484,0.139,1.898,0.416s0.699,0.688,0.855,1.23l-1.553,0.287
		c-0.066-0.242-0.193-0.428-0.379-0.557s-0.449-0.193-0.793-0.193c-0.434,0-0.744,0.061-0.932,0.182
		c-0.125,0.086-0.188,0.197-0.188,0.334c0,0.117,0.055,0.217,0.164,0.299c0.148,0.109,0.66,0.264,1.537,0.463
		s1.49,0.443,1.838,0.732c0.344,0.293,0.516,0.701,0.516,1.225c0,0.57-0.238,1.061-0.715,1.471s-1.182,0.615-2.115,0.615
		c-0.848,0-1.52-0.172-2.014-0.516S90.139,22.011,89.987,21.421z"/>
	<path fill="#FFFFFF" d="M100.094,16.974v1.312h-1.125v2.508c0,0.508,0.01,0.804,0.031,0.888s0.07,0.153,0.146,0.208
		s0.17,0.082,0.279,0.082c0.152,0,0.373-0.053,0.662-0.158l0.141,1.277c-0.383,0.164-0.816,0.246-1.301,0.246
		c-0.297,0-0.564-0.05-0.803-0.149s-0.414-0.229-0.525-0.387s-0.188-0.372-0.23-0.642c-0.035-0.191-0.053-0.578-0.053-1.16v-2.713
		h-0.756v-1.312h0.756v-1.236l1.652-0.961v2.197H100.094z"/>
</g>
<text transform="matrix(1 0 0 1 -64 169.1963)" fill="#FFFFFF" font-family="'ArialMT'" font-size="12">Select an interest</text>
</svg>
