<?xml version="1.0" encoding="utf-8"?>
<!-- Generator: Adobe Illustrator 16.0.4, SVG Export Plug-In . SVG Version: 6.00 Build 0)  -->
<!DOCTYPE svg PUBLIC "-//W3C//DTD SVG 1.1//EN" "http://www.w3.org/Graphics/SVG/1.1/DTD/svg11.dtd">
<svg version="1.1" id="Layer_1" xmlns="http://www.w3.org/2000/svg" xmlns:xlink="http://www.w3.org/1999/xlink" x="0px" y="0px"
	 width="289.333px" height="134px" viewBox="0 0 289.333 134" enable-background="new 0 0 289.333 134" xml:space="preserve">
<g>
	<circle fill="#FFFFFF" stroke="#C4C4C4" stroke-width="14" stroke-miterlimit="10" cx="472.297" cy="53.323" r="28.127"/>
	<path fill="#C4C4C4" d="M509.125,99.327c0,0,6.594-0.055,6.649-6.648c-3.989-3.989-24.378-24.377-24.378-24.377l-6.648,6.648
		L509.125,99.327z"/>
</g>
<g>
	<path fill-rule="evenodd" clip-rule="evenodd" fill="#DEDEDE" d="M213.159,15.62c0.676,0,1.352-0.021,2.025,0.005
		c0.767,0.03,1.533,0.083,2.295,0.163c0.841,0.088,1.682,0.195,2.516,0.333c0.797,0.131,1.585,0.312,2.377,0.475
		c0.604,0.124,1.213,0.233,1.812,0.382c0.478,0.119,0.94,0.29,1.413,0.433c0.409,0.124,0.825,0.228,1.228,0.366
		c0.747,0.256,1.492,0.52,2.232,0.799c0.571,0.217,1.141,0.449,1.699,0.699c0.9,0.404,1.805,0.802,2.683,1.251
		c0.982,0.503,1.949,1.042,2.901,1.6c1.537,0.898,2.999,1.909,4.402,3.005c1.75,1.365,3.373,2.863,4.896,4.479
		c1.075,1.141,2.079,2.341,3.018,3.592c0.985,1.312,1.933,2.657,2.713,4.108c0.565,1.045,1.167,2.07,1.72,3.121
		c0.333,0.635,0.622,1.295,0.902,1.958c0.405,0.962,0.795,1.93,1.165,2.907c0.213,0.562,0.371,1.144,0.552,1.717
		c0.147,0.471,0.302,0.94,0.435,1.416c0.14,0.504,0.262,1.013,0.384,1.521c0.103,0.432,0.198,0.865,0.288,1.299
		c0.086,0.409,0.163,0.819,0.234,1.231c0.113,0.634,0.216,1.27,0.323,1.906c0.01,0.053,0.014,0.108,0.018,0.162
		c0.067,0.886,0.111,1.775,0.206,2.658c0.119,1.089,0.14,2.178,0.131,3.271c-0.003,0.473,0.005,0.946-0.021,1.418
		c-0.045,0.859-0.107,1.719-0.17,2.578c-0.038,0.496-0.087,0.993-0.146,1.487c-0.047,0.386-0.111,0.77-0.174,1.154
		c-0.108,0.665-0.205,1.333-0.341,1.993c-0.13,0.618-0.302,1.227-0.454,1.84c-0.131,0.519-0.249,1.041-0.394,1.555
		c-0.135,0.475-0.32,0.934-0.439,1.411c-0.215,0.848-0.556,1.648-0.883,2.453c-0.399,0.988-0.813,1.973-1.271,2.936
		c-0.758,1.608-1.627,3.157-2.585,4.656c-0.252,0.396-0.507,0.79-0.763,1.182c-0.209,0.318-0.215,0.338,0.053,0.608
		c0.853,0.856,1.709,1.709,2.563,2.563c2.607,2.611,5.216,5.222,7.823,7.831c2.989,2.989,5.982,5.973,8.971,8.962
		c0.843,0.844,1.695,1.68,2.504,2.555c0.669,0.722,1.16,1.562,1.477,2.504c0.164,0.486,0.248,0.983,0.352,1.482
		c0.127,0.619,0.144,1.232,0.088,1.846c-0.042,0.491-0.183,0.973-0.268,1.46c-0.113,0.642-0.386,1.224-0.707,1.777
		c-0.95,1.627-2.255,2.87-4.004,3.62c-0.578,0.249-1.181,0.396-1.802,0.513c-0.618,0.116-1.23,0.158-1.848,0.103
		c-0.529-0.046-1.053-0.142-1.577-0.264c-1.153-0.271-2.14-0.844-3.017-1.606c-0.68-0.594-1.3-1.258-1.94-1.899
		c-2.539-2.543-5.076-5.091-7.618-7.633c-1.732-1.732-3.475-3.455-5.213-5.185c-2.394-2.383-4.786-4.768-7.179-7.152
		c-0.318-0.316-0.321-0.319-0.708-0.072c-0.789,0.505-1.562,1.036-2.366,1.515c-0.723,0.432-1.483,0.8-2.218,1.211
		c-1.263,0.707-2.611,1.229-3.928,1.818c-0.668,0.299-1.385,0.489-2.08,0.729c-0.341,0.117-0.679,0.24-1.021,0.354
		c-0.291,0.097-0.583,0.194-0.88,0.273c-0.856,0.229-1.714,0.455-2.575,0.669c-0.301,0.075-0.609,0.115-0.913,0.169
		c-0.452,0.078-0.902,0.154-1.354,0.229c-0.556,0.093-1.111,0.185-1.668,0.278c-0.025,0.004-0.053,0.01-0.078,0.012
		c-1.076,0.079-2.148,0.161-3.225,0.235c-0.617,0.043-1.234,0.093-1.852,0.104c-0.932,0.016-1.864,0.022-2.795-0.006
		c-0.712-0.021-1.424-0.087-2.133-0.162c-0.896-0.094-1.791-0.2-2.681-0.337c-0.649-0.099-1.29-0.256-1.935-0.387
		c-0.462-0.094-0.926-0.173-1.385-0.282c-0.522-0.125-1.041-0.27-1.559-0.416c-0.463-0.13-0.922-0.267-1.381-0.409
		c-0.585-0.183-1.174-0.356-1.75-0.565c-0.668-0.243-1.324-0.514-1.982-0.783c-0.543-0.221-1.086-0.443-1.617-0.688
		c-0.678-0.312-1.352-0.634-2.015-0.975c-1.761-0.904-3.461-1.907-5.091-3.037c-1.141-0.792-2.234-1.645-3.305-2.525
		c-0.752-0.619-1.459-1.294-2.17-1.962c-2.002-1.884-3.752-3.987-5.33-6.233c-0.953-1.354-1.821-2.761-2.608-4.215
		c-0.686-1.268-1.339-2.554-1.882-3.891c-0.449-1.103-0.912-2.199-1.316-3.318c-0.285-0.789-0.455-1.62-0.725-2.416
		c-0.346-1.02-0.506-2.084-0.792-3.118c-0.08-0.285-0.108-0.583-0.153-0.876c-0.084-0.544-0.162-1.089-0.244-1.634
		c-0.092-0.611-0.195-1.221-0.27-1.834c-0.039-0.321-0.018-0.648-0.049-0.971c-0.129-1.355-0.178-2.714-0.158-4.076
		c0.006-0.473-0.004-0.947,0.023-1.418c0.043-0.78,0.104-1.558,0.168-2.336c0.039-0.469,0.082-0.939,0.152-1.404
		c0.118-0.771,0.26-1.538,0.396-2.306c0.088-0.491,0.172-0.983,0.282-1.469c0.131-0.576,0.288-1.146,0.437-1.716
		c0.066-0.258,0.137-0.516,0.213-0.771c0.293-0.972,0.539-1.96,0.892-2.91c0.436-1.177,0.956-2.322,1.445-3.479
		c0.723-1.711,1.606-3.34,2.562-4.931c1.199-1.995,2.549-3.886,4.054-5.664c1.089-1.286,2.253-2.499,3.48-3.65
		c1.337-1.255,2.761-2.404,4.25-3.476c1.657-1.194,3.394-2.262,5.195-3.219c0.979-0.52,1.993-0.974,3.005-1.423
		c0.816-0.362,1.654-0.675,2.484-1.007c0.534-0.214,1.064-0.439,1.609-0.626c0.441-0.152,0.899-0.253,1.35-0.382
		c0.486-0.139,0.972-0.287,1.457-0.428c0.259-0.075,0.515-0.157,0.777-0.21c1.122-0.227,2.243-0.463,3.369-0.659
		c0.664-0.115,1.342-0.134,2.006-0.244c0.814-0.135,1.643-0.105,2.453-0.212C211.466,15.585,212.313,15.661,213.159,15.62z
		 M213.075,88.533c0,0.014,0,0.026,0,0.041c0.08,0,0.162,0.001,0.243,0c0.661-0.018,1.325-0.008,1.983-0.062
		c0.666-0.055,1.325-0.205,1.992-0.254c0.794-0.058,1.571-0.201,2.34-0.382c0.836-0.198,1.659-0.443,2.48-0.696
		c0.537-0.165,1.069-0.354,1.588-0.573c0.732-0.311,1.467-0.625,2.168-1c0.906-0.484,1.791-1.01,2.664-1.552
		c0.509-0.317,0.977-0.701,1.466-1.05c1.179-0.839,2.24-1.817,3.255-2.838c1.064-1.07,2.05-2.211,2.949-3.43
		c0.796-1.078,1.503-2.208,2.136-3.383c0.554-1.033,1.061-2.091,1.449-3.201c0.198-0.569,0.396-1.139,0.568-1.716
		c0.153-0.515,0.263-1.042,0.403-1.561c0.212-0.779,0.368-1.568,0.438-2.373c0.009-0.107,0.01-0.216,0.023-0.323
		c0.085-0.665,0.21-1.328,0.251-1.995c0.055-0.849,0.05-1.701,0.053-2.552c0.002-0.554-0.003-1.109-0.053-1.66
		c-0.072-0.815-0.184-1.626-0.287-2.438c-0.051-0.399-0.098-0.802-0.192-1.192c-0.195-0.794-0.407-1.587-0.638-2.372
		c-0.223-0.756-0.432-1.522-0.734-2.247c-0.394-0.949-0.861-1.869-1.321-2.79c-0.67-1.343-1.514-2.583-2.424-3.767
		c-0.738-0.961-1.567-1.858-2.399-2.745c-0.538-0.573-1.168-1.058-1.726-1.613c-0.896-0.891-1.929-1.608-2.958-2.321
		c-0.928-0.643-1.933-1.179-2.924-1.727c-0.616-0.34-1.258-0.645-1.912-0.911c-0.68-0.275-1.379-0.503-2.08-0.715
		c-0.822-0.248-1.654-0.465-2.487-0.676c-0.377-0.096-0.765-0.145-1.149-0.21c-0.555-0.094-1.107-0.22-1.667-0.268
		c-1.008-0.085-2.019-0.151-3.028-0.172c-0.891-0.019-1.783,0.008-2.674,0.064c-0.71,0.044-1.416,0.153-2.123,0.252
		c-0.559,0.079-1.117,0.168-1.668,0.285c-0.526,0.111-1.046,0.254-1.562,0.399c-0.658,0.185-1.318,0.361-1.961,0.587
		c-0.627,0.221-1.227,0.512-1.848,0.748c-1.041,0.398-1.996,0.961-2.949,1.522c-1.5,0.882-2.888,1.927-4.191,3.08
		c-1.313,1.162-2.527,2.418-3.636,3.782c-1.021,1.255-1.948,2.572-2.728,3.986c-0.51,0.925-0.98,1.877-1.39,2.85
		c-0.36,0.86-0.626,1.761-0.898,2.655c-0.239,0.782-0.455,1.574-0.634,2.372c-0.147,0.667-0.241,1.35-0.328,2.029
		c-0.082,0.626-0.166,1.258-0.173,1.888c-0.014,1.455-0.105,2.912,0.106,4.364c0.076,0.517,0.08,1.042,0.158,1.564
		c0.11,0.729,0.182,1.463,0.366,2.18c0.148,0.573,0.239,1.162,0.41,1.726c0.257,0.846,0.53,1.689,0.853,2.511
		c0.296,0.755,0.636,1.497,1.009,2.217c0.683,1.317,1.437,2.593,2.337,3.777c0.396,0.521,0.77,1.062,1.189,1.563
		c0.41,0.493,0.873,0.942,1.305,1.419c0.999,1.1,2.114,2.073,3.268,3.005c0.951,0.766,1.946,1.466,3.002,2.076
		c0.9,0.519,1.822,1.006,2.76,1.456c0.682,0.328,1.396,0.595,2.111,0.845c0.658,0.23,1.336,0.405,2.008,0.595
		c0.541,0.152,1.082,0.317,1.632,0.427c0.697,0.14,1.401,0.241,2.106,0.335c0.56,0.074,1.123,0.135,1.687,0.158
		C211.751,88.554,212.413,88.533,213.075,88.533z"/>
	<g>
		<path fill-rule="evenodd" clip-rule="evenodd" fill="#DEDEDE" d="M100.453,117.836c-11.371,0-22.743,0.001-34.113,0
			c-5.012,0-7.797-2.771-7.798-7.756c-0.002-4.189-0.005-8.378,0-12.568c0.006-4.648,2.862-7.526,7.5-7.528
			c22.883-0.005,45.766-0.005,68.649,0c4.569,0.001,7.463,2.885,7.475,7.444c0.012,4.294,0.009,8.59,0.001,12.885
			c-0.009,4.639-2.884,7.521-7.497,7.522C123.265,117.838,111.859,117.836,100.453,117.836z"/>
		<path fill-rule="evenodd" clip-rule="evenodd" fill="#DEDEDE" d="M100.354,43.471c-11.23,0-22.46-0.109-33.688,0.049
			c-5.069,0.072-8.403-3.185-8.163-8.226c0.191-4.039,0.034-8.094,0.04-12.143c0.006-4.65,2.86-7.531,7.495-7.532
			c22.881-0.006,45.762-0.005,68.644-0.001c4.574,0.001,7.472,2.882,7.486,7.433c0.012,4.33,0.012,8.66,0,12.99
			c-0.014,4.55-2.91,7.424-7.492,7.427C123.234,43.477,111.794,43.471,100.354,43.471z"/>
		<path fill-rule="evenodd" clip-rule="evenodd" fill="#DEDEDE" d="M100.348,52.799c11.37,0,22.741-0.001,34.111,0
			c4.906,0.001,7.708,2.816,7.71,7.74c0.002,4.189,0.006,8.378-0.001,12.567c-0.007,4.691-2.872,7.544-7.586,7.545
			c-22.811,0.003-45.622,0.003-68.433,0c-4.771,0-7.604-2.849-7.606-7.634c-0.002-4.224-0.005-8.448,0-12.673
			c0.005-4.7,2.861-7.543,7.589-7.545C77.537,52.796,88.942,52.799,100.348,52.799z"/>
		<path fill-rule="evenodd" clip-rule="evenodd" fill="#DEDEDE" d="M30.547,117.836c-3.731,0-7.463,0.008-11.194-0.002
			c-4.339-0.012-7.271-2.942-7.289-7.303c-0.018-4.4-0.016-8.801,0-13.201c0.015-4.419,2.925-7.333,7.362-7.343
			c7.498-0.017,14.996-0.018,22.495,0.001c4.353,0.011,7.265,2.938,7.287,7.309c0.022,4.4,0.021,8.801,0.001,13.201
			c-0.021,4.425-2.946,7.33-7.361,7.337C38.081,117.842,34.314,117.836,30.547,117.836z"/>
		<path fill-rule="evenodd" clip-rule="evenodd" fill="#DEDEDE" d="M30.636,15.617c3.696,0,7.392-0.005,11.087,0.001
			c4.574,0.009,7.474,2.881,7.488,7.431c0.013,4.329,0.012,8.658,0,12.987c-0.013,4.551-2.907,7.427-7.484,7.433
			c-7.392,0.009-14.783,0.009-22.174,0c-4.618-0.005-7.485-2.898-7.49-7.535c-0.005-4.294-0.008-8.588,0-12.882
			c0.01-4.502,2.895-7.412,7.38-7.431C23.174,15.604,26.905,15.617,30.636,15.617z"/>
		<path fill-rule="evenodd" clip-rule="evenodd" fill="#DEDEDE" d="M30.747,52.799c3.66,0,7.321-0.005,10.981,0.001
			c4.571,0.009,7.469,2.884,7.482,7.436c0.012,4.329,0.013,8.659,0,12.988c-0.014,4.506-2.897,7.417-7.384,7.425
			c-7.461,0.016-14.924,0.016-22.385,0c-4.481-0.01-7.369-2.933-7.378-7.433c-0.009-4.329-0.009-8.659,0-12.988
			c0.01-4.5,2.897-7.407,7.386-7.426C23.214,52.787,26.98,52.799,30.747,52.799z"/>
	</g>
</g>
</svg>
